<svg width="30" height="30" viewBox="0 0 30 30" fill="none" xmlns="http://www.w3.org/2000/svg">
<path d="M22.74 10.1097V8.42973C22.74 4.16973 19.26 0.719727 15 0.719727C10.74 0.719727 7.25996 4.19973 7.25996 8.45973V10.1397C4.52996 10.6497 2.45996 13.0497 2.45996 15.9297V23.7897C2.45996 26.8497 4.94996 29.3397 8.00996 29.3397H21.96C25.02 29.3397 27.51 26.8497 27.51 23.7897V15.8997C27.54 13.0197 25.44 10.6197 22.74 10.1097ZM15 2.36973C18.36 2.36973 21.09 5.09973 21.09 8.45973V10.0197H8.90996V8.45973C8.90996 5.09973 11.64 2.36973 15 2.36973ZM25.89 23.7297C25.89 25.8897 24.15 27.6297 21.99 27.6297H8.00996C5.84996 27.6297 4.10996 25.8897 4.10996 23.7297V15.8997C4.10996 13.5597 5.99996 11.6697 8.33996 11.6697H21.63C23.97 11.6697 25.86 13.5597 25.86 15.8997V23.7297H25.89Z" fill="#3F3F3F"/>
<path d="M14.9998 17.85C14.3398 17.85 13.7998 18.39 13.7998 19.05V21.03C13.7998 21.36 13.9498 21.69 14.1898 21.9V23.13C14.1898 23.58 14.5498 23.97 15.0298 23.97C15.5098 23.97 15.8698 23.61 15.8698 23.13V21.9C16.1098 21.69 16.2598 21.36 16.2598 21.03V19.05C16.1998 18.39 15.6598 17.85 14.9998 17.85Z" fill="#3F3F3F"/>
</svg>
